<!DOCTYPE svg PUBLIC "-//W3C//DTD SVG 1.1//EN" "http://www.w3.org/Graphics/SVG/1.1/DTD/svg11.dtd">
<!-- Uploaded to: SVG Repo, www.svgrepo.com, Transformed by: SVG Repo Mixer Tools -->
<svg fill="#3D5161" width="64px" height="64px" viewBox="0 0 256 256" id="Flat" xmlns="http://www.w3.org/2000/svg">
<g id="SVGRepo_bgCarrier" stroke-width="0"/>
<g id="SVGRepo_tracerCarrier" stroke-linecap="round" stroke-linejoin="round"/>
<g id="SVGRepo_iconCarrier"> <path d="M228,204H216V40a4.0002,4.0002,0,0,0-4-4H156a4.0002,4.0002,0,0,0-4,4V84H100a4.0002,4.0002,0,0,0-4,4v44H44a4.0002,4.0002,0,0,0-4,4v68H28a4,4,0,0,0,0,8H228a4,4,0,0,0,0-8ZM104,92h48V204H104ZM48,140H96v64H48Zm112,64V44h48V204Z"/> </g>
</svg>