<!DOCTYPE svg PUBLIC "-//W3C//DTD SVG 1.1//EN" "http://www.w3.org/Graphics/SVG/1.1/DTD/svg11.dtd">
<!-- Uploaded to: SVG Repo, www.svgrepo.com, Transformed by: SVG Repo Mixer Tools -->
<svg width="64px" height="64px" viewBox="-0.5 0 25 25" fill="none" xmlns="http://www.w3.org/2000/svg">
<g id="SVGRepo_bgCarrier" stroke-width="0"/>
<g id="SVGRepo_tracerCarrier" stroke-linecap="round" stroke-linejoin="round"/>
<g id="SVGRepo_iconCarrier"> <path d="M21.75 0.75H2.25C1.42157 0.75 0.75 1.42157 0.75 2.25V8.25C0.75 9.07843 1.42157 9.75 2.25 9.75H21.75C22.5784 9.75 23.25 9.07843 23.25 8.25V2.25C23.25 1.42157 22.5784 0.75 21.75 0.75Z" stroke="#3D5161" stroke-width="1.5" stroke-linecap="round" stroke-linejoin="round"/> <path d="M21.75 14.25H2.25C1.42157 14.25 0.75 14.9216 0.75 15.75V21.75C0.75 22.5784 1.42157 23.25 2.25 23.25H21.75C22.5784 23.25 23.25 22.5784 23.25 21.75V15.75C23.25 14.9216 22.5784 14.25 21.75 14.25Z" stroke="#3D5161" stroke-width="1.5" stroke-linecap="round" stroke-linejoin="round"/> </g>
</svg>